<?xml version="1.0" encoding="UTF-8" standalone="no"?>
<svg
   xmlns:dc="http://purl.org/dc/elements/1.1/"
   xmlns:cc="http://creativecommons.org/ns#"
   xmlns:rdf="http://www.w3.org/1999/02/22-rdf-syntax-ns#"
   xmlns:svg="http://www.w3.org/2000/svg"
   xmlns="http://www.w3.org/2000/svg"
   xmlns:xlink="http://www.w3.org/1999/xlink"
   xmlns:sodipodi="http://sodipodi.sourceforge.net/DTD/sodipodi-0.dtd"
   xmlns:inkscape="http://www.inkscape.org/namespaces/inkscape"
   width="36.765369mm"
   height="29.143965mm"
   viewBox="0 0 36.765369 29.143965"
   version="1.1"
   id="svg8"
   inkscape:version="1.0.1 (3bc2e813f5, 2020-09-07)"
   sodipodi:docname="WetBat.svg">
  <defs
     id="defs2">
    <linearGradient
       inkscape:collect="always"
       id="linearGradient1887">
      <stop
         style="stop-color:#5f6caf;stop-opacity:1"
         offset="0"
         id="stop1883" />
      <stop
         style="stop-color:#35a9a8;stop-opacity:1"
         offset="1"
         id="stop1898" />
      <stop
         style="stop-color:#5bbfba;stop-opacity:0.01960784"
         offset="1"
         id="stop1896" />
    </linearGradient>
    <linearGradient
       inkscape:collect="always"
       xlink:href="#linearGradient1887"
       id="linearGradient1900"
       gradientUnits="userSpaceOnUse"
       x1="77.468384"
       y1="189.74217"
       x2="115.72771"
       y2="189.60854" />
  </defs>
  <sodipodi:namedview
     id="base"
     pagecolor="#ffffff"
     bordercolor="#666666"
     borderopacity="1.0"
     inkscape:pageopacity="0.0"
     inkscape:pageshadow="2"
     inkscape:zoom="1.979899"
     inkscape:cx="-44.512885"
     inkscape:cy="98.709426"
     inkscape:document-units="mm"
     inkscape:current-layer="layer1"
     inkscape:document-rotation="0"
     showgrid="false"
     inkscape:window-width="2560"
     inkscape:window-height="1017"
     inkscape:window-x="-8"
     inkscape:window-y="-8"
     inkscape:window-maximized="1"
     fit-margin-top="0"
     fit-margin-left="0"
     fit-margin-right="0"
     fit-margin-bottom="0" />
  <metadata
     id="metadata5">
    <rdf:RDF>
      <cc:Work
         rdf:about="">
        <dc:format>image/svg+xml</dc:format>
        <dc:type
           rdf:resource="http://purl.org/dc/dcmitype/StillImage" />
        <dc:title></dc:title>
      </cc:Work>
    </rdf:RDF>
  </metadata>
  <g
     inkscape:label="Layer 1"
     inkscape:groupmode="layer"
     id="layer1"
     transform="translate(-77.468387,-175.17019)">
    <path
       style="fill:#000000;stroke-width:0.264583"
       id="path988"
       d="" />
    <path
       style="fill:#000000;stroke-width:0.264583"
       id="path36"
       d="" />
    <path
       style="fill:#000000;stroke-width:0.264583"
       id="path34"
       d="" />
    <path
       id="path1030"
       style="fill:url(#linearGradient1900);fill-opacity:1;stroke:none;stroke-width:0.265;stroke-linecap:butt;stroke-linejoin:miter;stroke-miterlimit:4;stroke-dasharray:none;stroke-opacity:1"
       d="m 98.555639,182.72884 c -0.06879,0.13832 -0.01139,0.31237 0.02362,0.46283 0.02362,0.1015 0.123573,0.28719 0.123573,0.28719 l 0.787489,1.59959 c 0,0 0.106644,0.20295 0.193443,0.27297 0.143543,0.1158 0.324456,0.21756 0.508886,0.21716 0.20156,-4.4e-4 0.4019,-0.1088 0.55512,-0.23977 0.0873,-0.0746 0.18421,-0.29123 0.18421,-0.29123 l 0.92218,-1.77155 c 0,0 0.12112,-0.19923 0.14543,-0.31108 0.02,-0.0919 0.0543,-0.20724 -0.003,-0.28212 -0.0543,-0.0715 -0.16962,-0.0852 -0.25875,-0.0746 -0.10093,0.012 -0.26492,0.15102 -0.26492,0.15102 l -0.99355,0.66237 c 0,0 -0.18036,0.16117 -0.29218,0.16525 -0.0988,0.004 -0.26827,-0.12688 -0.26827,-0.12688 l -0.946826,-0.70102 c 0,0 -0.166794,-0.13182 -0.263646,-0.12423 -0.06155,0.005 -0.125711,0.0488 -0.153203,0.10409 z m 8.074411,13.03981 c 0.38047,-4.81767 7.09057,-3.89573 6.35,0.79375 h 0.26459 c 3.14378,-5.19399 -1.71715,-11.90625 -7.40834,-11.90625 -1.29222,0 -2.84427,0.50892 -3.96875,1.10244 -0.49397,0.26077 -1.2012,1.01952 -1.76397,1.05833 -0.509849,0.0352 -1.231373,-0.81772 -1.675608,-1.05833 -1.19671,-0.64818 -2.861204,-1.10244 -4.233333,-1.10244 -6.788891,0 -9.112805,6.82627 -7.14375,12.17083 h 0.264583 c -0.536151,-2.91042 2.244672,-5.92751 5.027084,-3.61606 0.810418,0.67337 1.045898,1.60047 1.322916,2.55773 1.441186,-0.72073 4.374885,-0.7501 3.616061,1.85208 -0.465403,1.59517 -1.967177,3.05382 -3.351477,3.88064 -6.035622,3.60442 -12.194963,-1.94865 -13.670148,-7.84939 -2.368417,-9.4737 5.713016,-17.05856 14.728481,-16.93333 3.678502,0.0511 5.833001,2.55545 8.731251,4.23333 -3.881969,-7.02455 -14.843099,-7.2485 -20.637501,-2.82223 -5.566515,4.2522 -7.170499,12.28802 -4.012856,18.43265 1.117997,2.17567 2.735739,4.11612 4.806606,5.46814 4.333531,2.82866 10.557404,3.25358 14.816666,0 2.233345,-1.70603 2.374895,-3.87138 3.792275,-5.99731 0.44661,-0.66966 1.38694,-1.61872 2.29314,-1.45521 0.68501,0.12356 1.27291,0.8554 1.85208,1.19063" />
  </g>
</svg>
